{
    "asset" : {
        "generator" : "Khronos glTF Blender I/O v1.7.33",
        "version" : "2.0"
    },
    "scene" : 0,
    "scenes" : [
        {
            "name" : "Scene",
            "nodes" : [
                0
            ]
        }
    ],
    "nodes" : [
        {
            "mesh" : 0,
            "name" : "Text",
            "rotation" : [
                0.7166757583618164,
                -0.0315641388297081,
                0.02418164350092411,
                0.696272075176239
            ],
            "translation" : [
                -2.527128219604492,
                -0.34101271629333496,
                -0.4697345495223999
            ]
        }
    ],
    "meshes" : [
        {
            "name" : "Text",
            "primitives" : [
                {
                    "attributes" : {
                        "POSITION" : 0,
                        "NORMAL" : 1,
                        "TEXCOORD_0" : 2
                    },
                    "indices" : 3
                }
            ]
        }
    ],
    "accessors" : [
        {
            "bufferView" : 0,
            "componentType" : 5126,
            "count" : 5262,
            "max" : [
                5.6060004234313965,
                0.20000000298023224,
                0.009000000543892384
            ],
            "min" : [
                0,
                -0.20000000298023224,
                -0.6914074420928955
            ],
            "type" : "VEC3"
        },
        {
            "bufferView" : 1,
            "componentType" : 5126,
            "count" : 5262,
            "type" : "VEC3"
        },
        {
            "bufferView" : 2,
            "componentType" : 5126,
            "count" : 5262,
            "type" : "VEC2"
        },
        {
            "bufferView" : 3,
            "componentType" : 5123,
            "count" : 9564,
            "type" : "SCALAR"
        }
    ],
    "bufferViews" : [
        {
            "buffer" : 0,
            "byteLength" : 63144,
            "byteOffset" : 0
        },
        {
            "buffer" : 0,
            "byteLength" : 63144,
            "byteOffset" : 63144
        },
        {
            "buffer" : 0,
            "byteLength" : 42096,
            "byteOffset" : 126288
        },
        {
            "buffer" : 0,
            "byteLength" : 19128,
            "byteOffset" : 168384
        }
    ],
    "buffers" : [
        {
            "byteLength" : 187512,
            "uri" : "data:application/octet-stream;base64,"
        }
    ]
}
